<svg t="1574046258362" class="icon" viewBox="0 0 1024 1024" version="1.1" xmlns="http://www.w3.org/2000/svg" p-id="1146" width="200" height="200"><path d="M898.681367 1004.807056l0-699.977949L898.681367 204.9129 898.681367 26.531422c0-11.854465-9.596472-20.886439-20.886439-20.886439L145.640573 5.644983c-11.854465 0-20.886439 9.596472-20.886439 20.886439l0 977.711136c0 0 0 8.467475 6.209482 11.289967 7.902977 3.951488 13.54796 1.693495 13.54796 1.693495l348.859978-213.944873c0 0 9.596472-6.77398 18.063947-6.209482 10.16097-0.564498 20.886439 7.338479 20.886439 7.338479l349.988975 213.944873c0 0 7.902977 1.128997 12.983462-2.822492C899.810364 1011.016538 898.681367 1004.807056 898.681367 1004.807056zM788.039691 443.6957c0 3.38699-2.257993 5.644983-5.080485 5.644983L541.353914 449.340684l0 241.605292c0 2.822492-2.257993 5.080485-5.644983 5.080485l-46.853363 0c-3.38699 0-5.644983-2.257993-5.644983-5.080485L483.210584 449.340684 241.605292 449.340684c-2.822492 0-5.080485-2.257993-5.080485-5.644983l0-46.853363c0-3.38699 2.257993-5.644983 5.080485-5.644983l241.605292 0L483.210584 149.592062c0-2.822492 2.257993-5.080485 5.644983-5.080485l46.853363 0c3.38699 0 5.644983 2.257993 5.644983 5.080485l0 241.605292 241.605292 0c2.822492 0 5.080485 2.257993 5.080485 5.644983L788.039691 443.6957z" p-id="1147" fill="#1890ff"></path></svg>