<svg xmlns="http://www.w3.org/2000/svg" viewBox="0 0 340.2 340.2"><g fill="#e38c19" stroke="#e38c19" stroke-width="12" stroke-miterlimit="10"><path d="M160.9 201.6l41.6-41.6c6.3-6.3 6.3-16.7 0-23.1-6.3-6.3-16.7-6.3-23 0l-41.6 41.6c-6.3 6.3-6.3 16.7 0 23.1 6.4 6.4 16.6 6.4 23 0z"/><path d="M259.3 33.2c-4.8-3.2-12.6-7.1-19.2-10.4-2.3-1.2-5-2.1-7.9-2.1-5.2 0-9.8 2.4-12.6 6.1L203 43.4l-97.9 98c-3.1 3.1-4.7 7.3-4.7 11.3 0 4.1 1.6 8.4 4.8 11.6 6.3 6.3 16.7 6.5 22.9.1L233.6 58.7c.6-.7 1.5-1.1 2.4-1.1.5 0 .9.1 1.4.3.2.1.5.3.7.5l.1.1c37.4 23 62.4 64.3 62.4 111.5 0 69.2-53.6 125.8-121.5 130.4-9 0-16.3 7.4-16.3 16.4 0 9 7.3 16.4 16.3 16.4.7 0 1.4-.1 2-.1h.1c84.9-5.7 152-76.5 152-163 .1-57.4-29.4-107.7-73.9-136.9z"/><path d="M234.7 174.8c-6.3-6.3-16.7-6.5-22.9-.1l-106 106.2c-.6.6-1.2.9-2.2.9-.8 0-1.5-.2-2.1-.6-37.2-23.1-62-64.2-62-111.2 0-68.9 53.3-125.5 120.9-130.4 9 0 16.3-7.4 16.3-16.4s-7.3-16.4-16.3-16.4c-.7 0-1.5 0-2.2.1C73.6 13.2 6.9 83.8 6.9 170c0 57 29.1 107.1 73.2 136.4 4.8 3.2 12.5 7.3 19 10.4 2.3 1.2 5 2.1 7.8 2.1 4.4 0 8.4-1.8 11.4-4.6l.5-.5.2-.2 17.2-17.2h.1l98.5-98.6c6.4-6.2 6.3-16.5-.1-23z"/></g></svg>