<?xml version="1.0" encoding="UTF-8" standalone="no"?><!DOCTYPE svg PUBLIC "-//W3C//DTD SVG 1.1//EN" "http://www.w3.org/Graphics/SVG/1.1/DTD/svg11.dtd"><svg width="100%" height="100%" viewBox="0 0 120 120" version="1.1" xmlns="http://www.w3.org/2000/svg" xmlns:xlink="http://www.w3.org/1999/xlink" xml:space="preserve" xmlns:serif="http://www.serif.com/" style="fill-rule:evenodd;clip-rule:evenodd;stroke-linejoin:round;stroke-miterlimit:1.41421;"><path d="M67.9,121.5c-0.2,0 -0.4,0 -0.7,0c0.3,0.1 0.5,0 0.7,0Z" style="fill:#f49d2a;fill-rule:nonzero;"/><g><path d="M60.8,75.1l14.7,-14.7c2.2,-2.2 2.2,-5.9 0,-8.1c-2.2,-2.2 -5.9,-2.2 -8.1,0l-14.8,14.7c-2.2,2.2 -2.2,5.9 0,8.1c2.3,2.3 5.9,2.3 8.2,0Z" style="fill:#f49d2a;fill-rule:nonzero;"/><path d="M95.5,15.7c-1.7,-1.1 -4.5,-2.5 -6.8,-3.7c-0.8,-0.4 -1.8,-0.7 -2.8,-0.7c-1.8,0 -3.5,0.9 -4.5,2.2l-5.9,5.9l-34.5,34.5c-1.1,1.1 -1.7,2.6 -1.7,4c0,1.5 0.6,3 1.7,4.1c2.2,2.2 5.9,2.3 8.1,0l37.3,-37.3c0.2,-0.2 0.5,-0.4 0.9,-0.4c0.2,0 0.3,0 0.5,0.1c0.1,0 0.2,0.1 0.2,0.2c13.2,8.1 22,22.7 22,39.3c0,24.4 -18.9,44.4 -42.9,46c-3.2,0 -5.8,2.6 -5.8,5.8c0,3.2 2.6,5.8 5.8,5.8c0.2,0 0.5,0 0.7,0c30,-2 53.7,-27 53.7,-57.5c0.2,-20.2 -10.3,-38 -26,-48.3Z" style="fill:#f49d2a;fill-rule:nonzero;"/><path d="M86.8,65.7c-2.2,-2.2 -5.9,-2.3 -8.1,0l-37.5,37.5c-0.2,0.2 -0.4,0.3 -0.8,0.3c-0.3,0 -0.5,-0.1 -0.7,-0.2c-13.1,-8.2 -21.8,-22.7 -21.8,-39.3c0,-24.3 18.8,-44.3 42.7,-46c3.2,0 5.8,-2.6 5.8,-5.8c0,-3.2 -2.6,-5.8 -5.8,-5.8c-0.2,0 -0.5,0 -0.8,0c-29.9,2.3 -53.4,27.2 -53.4,57.6c0,20.1 10.3,37.8 25.9,48.1c1.7,1.1 4.4,2.6 6.7,3.7c0.8,0.4 1.8,0.7 2.8,0.7c1.5,0 3,-0.6 4,-1.6l0.2,-0.2l0.1,-0.1l6.1,-6.1l34.8,-34.8c2.1,-2.1 2.1,-5.7 -0.2,-8Z" style="fill:#f49d2a;fill-rule:nonzero;"/></g></svg>